<?xml version="1.0" encoding="UTF-8" standalone="no"?>
<!DOCTYPE svg PUBLIC "-//W3C//DTD SVG 1.1//EN" "http://www.w3.org/Graphics/SVG/1.1/DTD/svg11.dtd">
<!-- Created with Vectornator (http://vectornator.io/) -->
<svg height="100%" stroke-miterlimit="10" style="fill-rule:nonzero;clip-rule:evenodd;stroke-linecap:round;stroke-linejoin:round;" version="1.1" viewBox="0 0 1573.42 540.633" width="100%" xml:space="preserve" xmlns="http://www.w3.org/2000/svg" xmlns:vectornator="http://vectornator.io" xmlns:xlink="http://www.w3.org/1999/xlink">
<defs/>
<path d="M0 0L1573.42 0L1573.42 540.633L0 540.633L0 0Z" fill="#ffffff" fill-rule="nonzero" opacity="1" stroke="none" vectornator:artboardBackground="true" vectornator:layerName="Rectangle"/>
<g id="Layer-1" vectornator:layerName="Layer 1">
<g fill="#000000" opacity="1" stroke="none" vectornator:layerName="Text 1">
<path d="M179.905 163.302C214.025 163.302 239.286 174.266 255.688 196.194C268.494 213.298 274.897 235.183 274.897 261.847C274.897 290.704 267.573 314.694 252.926 333.815C235.734 356.269 211.218 367.496 179.379 367.496C149.644 367.496 126.269 357.673 109.253 338.025C94.0788 319.079 86.4917 295.134 86.4917 266.189C86.4917 240.051 92.9824 217.684 105.964 199.089C122.629 175.231 147.276 163.302 179.905 163.302ZM182.536 344.077C205.605 344.077 222.292 335.81 232.598 319.277C242.904 302.743 248.057 283.731 248.057 262.242C248.057 239.524 242.115 221.236 230.23 207.378C218.345 193.519 202.096 186.59 181.484 186.59C161.486 186.59 145.171 193.453 132.541 207.18C119.91 220.907 113.595 241.147 113.595 267.899C113.595 289.301 119.011 307.348 129.843 322.04C140.676 336.731 158.24 344.077 182.536 344.077Z"/>
<path d="M362.39 345.919C373.442 345.919 382.63 341.292 389.954 332.039C397.278 322.785 400.94 308.948 400.94 290.529C400.94 279.302 399.317 269.653 396.072 261.584C389.932 246.059 378.705 238.296 362.39 238.296C345.988 238.296 334.761 246.497 328.709 262.9C325.463 271.671 323.841 282.81 323.841 296.318C323.841 307.194 325.463 316.448 328.709 324.079C334.849 338.639 346.076 345.919 362.39 345.919ZM301.079 221.587L324.104 221.587L324.104 240.27C328.84 233.867 334.015 228.911 339.629 225.403C347.611 220.14 356.996 217.509 367.785 217.509C383.748 217.509 397.3 223.626 408.439 235.862C419.579 248.098 425.148 265.575 425.148 288.292C425.148 318.992 417.123 340.92 401.071 354.076C390.897 362.409 379.056 366.575 365.548 366.575C354.935 366.575 346.032 364.251 338.84 359.602C334.629 356.971 329.937 352.454 324.762 346.051L324.762 418.019L301.079 418.019L301.079 221.587Z"/>
<path d="M511.457 217.772C521.456 217.772 531.149 220.118 540.534 224.811C549.919 229.503 557.067 235.577 561.979 243.033C566.716 250.137 569.873 258.426 571.452 267.899C572.856 274.39 573.557 284.74 573.557 298.949L470.276 298.949C470.715 313.246 474.092 324.715 480.407 333.354C486.722 341.994 496.502 346.314 509.747 346.314C522.114 346.314 531.982 342.235 539.35 334.078C543.56 329.342 546.542 323.86 548.296 317.632L571.584 317.632C570.97 322.807 568.931 328.574 565.466 334.933C562.001 341.292 558.12 346.489 553.822 350.524C546.63 357.541 537.727 362.277 527.114 364.733C521.412 366.137 514.966 366.839 507.773 366.839C490.231 366.839 475.364 360.457 463.172 347.695C450.98 334.933 444.884 317.062 444.884 294.081C444.884 271.452 451.023 253.076 463.303 238.954C475.583 224.833 491.634 217.772 511.457 217.772ZM549.217 280.135C548.252 269.873 546.016 261.672 542.507 255.532C536.017 244.129 525.184 238.428 510.01 238.428C499.134 238.428 490.012 242.353 482.644 250.203C475.276 258.054 471.373 268.031 470.934 280.135L549.217 280.135Z"/>
<path d="M602.634 220.929L625.132 220.929L625.132 240.928C631.798 232.683 638.859 226.762 646.315 223.166C653.77 219.57 662.059 217.772 671.181 217.772C691.179 217.772 704.687 224.745 711.704 238.691C715.563 246.322 717.493 257.242 717.493 271.452L717.493 361.839L693.416 361.839L693.416 273.03C693.416 264.435 692.144 257.505 689.601 252.243C685.39 243.471 677.759 239.086 666.708 239.086C661.094 239.086 656.489 239.656 652.893 240.796C646.402 242.726 640.701 246.585 635.789 252.374C631.842 257.023 629.277 261.825 628.092 266.781C626.908 271.737 626.316 278.819 626.316 288.029L626.316 361.839L602.634 361.839L602.634 220.929Z"/>
<path d="M824.195 295.134L824.195 209.746L763.805 295.134L824.195 295.134ZM824.59 361.839L824.59 315.79L741.965 315.79L741.965 292.634L828.273 172.907L848.272 172.907L848.272 295.134L876.033 295.134L876.033 315.79L848.272 315.79L848.272 361.839L824.59 361.839Z"/>
<path d="M979.709 339.472C988.567 339.472 995.848 338.551 1001.55 336.709C1011.72 333.289 1020.06 326.71 1026.55 316.974C1031.72 309.168 1035.45 299.169 1037.73 286.977C1039.05 279.696 1039.7 272.943 1039.7 266.715C1039.7 242.77 1034.95 224.175 1025.43 210.93C1015.91 197.686 1000.58 191.063 979.445 191.063L933.002 191.063L933.002 339.472L979.709 339.472ZM906.688 168.565L984.971 168.565C1011.55 168.565 1032.16 177.994 1046.81 196.852C1059.88 213.868 1066.41 235.665 1066.41 262.242C1066.41 282.766 1062.55 301.318 1054.83 317.895C1041.24 347.191 1017.86 361.839 984.708 361.839L906.688 361.839L906.688 168.565Z"/>
</g>
<g opacity="1" vectornator:layerName="Group 1">
<path d="M1147.2 360.458L1319.78 459.876L1497.46 362.575L1496.03 160.234L1319.78 58.2454L1148.04 158.624L1147.2 360.458Z" fill="none" opacity="1" stroke="#000000" stroke-linecap="butt" stroke-linejoin="round" stroke-width="20.3724" vectornator:layerName="Curve 1"/>
<path d="M1319.78 259.735L1497.46 159.39" fill="none" opacity="1" stroke="#000000" stroke-linecap="butt" stroke-linejoin="round" stroke-width="20.3724" vectornator:layerName="Curve 2"/>
<path d="M1319.78 259.735L1147.2 159.39" fill="none" opacity="1" stroke="#000000" stroke-linecap="butt" stroke-linejoin="round" stroke-width="20.3724" vectornator:layerName="Curve 3"/>
<path d="M1319.78 259.735L1319.78 459.876" fill="none" opacity="1" stroke="#000000" stroke-linecap="butt" stroke-linejoin="round" stroke-width="20.3724" vectornator:layerName="Curve 4"/>
</g>
<g opacity="1" vectornator:layerName="Group 2">
<path d="M1321.96 388.493L1432.16 325.123L1431.7 197.173L1319.78 129.174L1210.08 197.8L1209.52 324.443L1321.96 388.493Z" fill="none" opacity="1" stroke="#000000" stroke-linecap="butt" stroke-linejoin="round" stroke-width="10.1862" vectornator:layerName="Curve 5"/>
<path d="M1319.78 129.174L1319.78 58.2454" fill="none" opacity="1" stroke="#000000" stroke-linecap="butt" stroke-linejoin="round" stroke-width="10.1862" vectornator:layerName="Curve 6"/>
<path d="M1209.52 326.05L1147.2 359.642" fill="none" opacity="1" stroke="#000000" stroke-linecap="butt" stroke-linejoin="round" stroke-width="10.1862" vectornator:layerName="Curve 7"/>
<path d="M1432.16 326.05L1497.46 359.642" fill="none" opacity="1" stroke="#000000" stroke-linecap="butt" stroke-linejoin="round" stroke-width="10.1862" vectornator:layerName="Curve 8"/>
</g>
</g>
</svg>
